<?xml version="1.0" standalone="no"?>
<!DOCTYPE svg PUBLIC "-//W3C//DTD SVG 20010904//EN"
 "http://www.w3.org/TR/2001/REC-SVG-20010904/DTD/svg10.dtd">
<svg version="1.0" xmlns="http://www.w3.org/2000/svg"
 width="700.000000pt" height="700.000000pt" viewBox="0 0 700.000000 700.000000"
 preserveAspectRatio="xMidYMid meet">
<metadata>
Created by potrace 1.11, written by Peter Selinger 2001-2013
</metadata>
<g transform="translate(0.000000,700.000000) scale(0.100000,-0.100000)"
fill="#000000" stroke="none">
<path d="M5440 6113 c-267 -217 -486 -398 -488 -401 -1 -4 52 -34 118 -67 66
-33 120 -61 120 -62 0 -16 -1853 -3704 -1860 -3701 -5 2 -58 47 -119 101
l-109 98 53 112 c30 62 322 676 649 1366 327 689 597 1255 600 1258 2 2 40
-14 85 -36 44 -23 83 -41 86 -41 3 0 5 201 5 446 0 281 -4 444 -10 442 -16 -5
-670 -539 -670 -547 0 -4 36 -25 80 -46 44 -21 80 -40 80 -42 0 -7 -1280
-2563 -1284 -2563 -4 0 -149 179 -160 197 -4 7 6 36 22 65 16 29 220 454 452
945 l423 892 59 -30 58 -29 0 300 c0 289 -1 301 -18 288 -58 -42 -432 -351
-432 -357 0 -4 23 -18 50 -31 28 -13 50 -27 50 -32 0 -4 -194 -396 -431 -869
l-430 -862 -23 34 c-97 143 -264 475 -339 674 -389 1032 -126 1908 665 2219
144 57 386 105 534 107 112 1 34 17 -153 31 -264 19 -529 -10 -748 -83 -809
-270 -1154 -1110 -878 -2139 99 -369 298 -799 525 -1138 28 -41 47 -76 44 -79
-3 -3 -36 -8 -73 -10 -118 -9 -273 45 -412 144 -86 61 -254 225 -328 319 l-58
74 -158 0 -158 0 75 -83 c133 -145 334 -321 491 -429 275 -190 519 -274 720
-247 l70 9 35 -42 c19 -24 77 -92 129 -152 l94 -110 -36 -31 c-46 -40 -150
-91 -224 -110 -162 -42 -378 3 -588 124 -179 103 -455 356 -615 563 l-75 98
-239 0 -238 0 123 -131 c133 -141 347 -341 495 -461 329 -268 641 -440 934
-515 91 -24 125 -28 250 -28 201 0 322 35 469 134 l61 41 106 -92 c59 -51 121
-105 138 -120 l31 -27 -70 -71 c-238 -242 -522 -340 -817 -281 -343 68 -679
272 -1033 626 -138 138 -297 321 -385 442 l-45 62 -337 1 c-186 0 -338 -3
-338 -7 0 -5 75 -87 168 -183 757 -791 1445 -1257 2077 -1406 148 -35 424 -45
558 -20 252 48 459 163 660 369 91 93 100 100 119 88 131 -82 374 -200 570
-277 416 -163 769 -232 1138 -221 336 10 564 69 812 210 157 90 339 257 423
390 21 34 19 33 -52 -15 -120 -81 -339 -168 -508 -202 -529 -105 -1179 19
-1813 346 -206 107 -327 183 -326 205 1 10 399 853 884 1873 485 1020 893
1879 906 1908 l23 53 122 -61 c66 -34 123 -59 125 -57 2 2 3 292 2 644 l-3
640 -485 -394z"/>
</g>
</svg>
