<svg width="75" height="75" viewBox="0 0 80 70" xmlns="http://www.w3.org/2000/svg">
  <path d="M37.97 53.82l6.4 3.55 20.58-43.35 2.84 1.42V.52L56.43 9.76l2.84 1.42-21.3 42.64c-4.86 9.43-11.03 10-16.49 7.57C14.2 58.14 8.16 49.55 8.16 49.55H.35s30.52 36.24 44.01 7.82" fill="#4B9BEB"/>
  <path d="M25.45 62.54s-8.06-.2-17.3-12.99H.36s19.68 13.89 25.1 12.99z" fill="#014B7D"/>
  <path d="M31.51 47.73l4.47 2.48 14.37-30.27 1.98 1V10.5l-7.93 6.45 1.99 1L31.5 47.73C28.12 54.3 23.81 54.7 20 53c-5.1-2.26-9.3-8.26-9.3-8.26H5.25s21.3 25.3 30.73 5.46" fill="#4B9BEB"/>
  <path d="M22.77 53.82s-5.63-.12-12.06-9.06H5.25s13.73 9.7 17.52 9.06z" fill="#014B7D"/>
  <path d="M27.47 42.04l3 1.68 9.7-20.42 1.35.67v-7.03l-5.35 4.35 1.34.67-10.04 20.08c-2.3 4.45-5.2 4.71-7.77 3.55-3.44-1.52-6.27-5.57-6.27-5.57H9.75s14.37 17.06 20.73 3.68" fill="#4B9BEB"/>
  <path d="M21.57 46.15s-3.8-.1-8.14-6.11H9.75s9.26 6.54 11.82 6.1zM63.9 64.5c-14.98-.15-32.74-13.15-39.67-29.02-6.85-15.68-.55-28.31 14.07-28.42a29.08 29.08 0 00-4.39-.39c-15.62-.14-22.45 13.6-15.24 30.68 7.21 17.08 25.72 31.02 41.36 31.16 7.1.06 12.33-2.72 15.3-7.36-2.87 2.18-6.73 3.4-11.43 3.35z" fill="#014B7D"/>
</svg>
